<svg width="56" height="56" viewBox="0 0 56 56" fill="none" xmlns="http://www.w3.org/2000/svg">
<path d="M30.8001 8.4001C30.8001 6.8537 29.5465 5.6001 28.0001 5.6001C26.4537 5.6001 25.2001 6.8537 25.2001 8.4001V11.2001C25.2001 12.7465 26.4537 14.0001 28.0001 14.0001C29.5465 14.0001 30.8001 12.7465 30.8001 11.2001V8.4001Z" fill="#2D8DFC"/>
<path d="M43.8392 16.1206C44.9326 15.0271 44.9326 13.2542 43.8392 12.1608C42.7457 11.0673 40.9728 11.0673 39.8794 12.1608L37.8995 14.1407C36.806 15.2341 36.806 17.007 37.8995 18.1005C38.9929 19.1939 40.7658 19.1939 41.8593 18.1005L43.8392 16.1206Z" fill="#2D8DFC"/>
<path d="M50.4001 28.0001C50.4001 29.5465 49.1465 30.8001 47.6001 30.8001H44.8001C43.2537 30.8001 42.0001 29.5465 42.0001 28.0001C42.0001 26.4537 43.2537 25.2001 44.8001 25.2001H47.6001C49.1465 25.2001 50.4001 26.4537 50.4001 28.0001Z" fill="#2D8DFC"/>
<path d="M14.1406 18.1005C15.2341 19.194 17.007 19.194 18.1004 18.1005C19.1939 17.007 19.1939 15.2342 18.1004 14.1407L16.1205 12.1608C15.0271 11.0673 13.2542 11.0673 12.1607 12.1608C11.0673 13.2543 11.0673 15.0271 12.1607 16.1206L14.1406 18.1005Z" fill="#2D8DFC"/>
<path d="M14.0001 28.0001C14.0001 29.5465 12.7465 30.8001 11.2001 30.8001H8.4001C6.8537 30.8001 5.6001 29.5465 5.6001 28.0001C5.6001 26.4537 6.8537 25.2001 8.4001 25.2001H11.2001C12.7465 25.2001 14.0001 26.4537 14.0001 28.0001Z" fill="#2D8DFC"/>
<path d="M22.4001 44.8001V42.0001H33.6001V44.8001C33.6001 47.8929 31.0929 50.4001 28.0001 50.4001C24.9073 50.4001 22.4001 47.8929 22.4001 44.8001Z" fill="#2D8DFC"/>
<path d="M33.6026 39.2001C33.6435 38.2472 34.1814 37.3905 34.9352 36.7953C37.5328 34.7442 39.2001 31.5668 39.2001 28.0001C39.2001 21.8145 34.1857 16.8001 28.0001 16.8001C21.8145 16.8001 16.8001 21.8145 16.8001 28.0001C16.8001 31.5668 18.4674 34.7442 21.065 36.7953C21.8188 37.3905 22.3567 38.2472 22.3976 39.2001H33.6026Z" fill="#2D8DFC"/>
<path d="M22.3999 47.6V44.8H33.5999V47.6C33.5999 50.6928 31.0927 53.2001 27.9999 53.2001C24.9071 53.2001 22.3999 50.6928 22.3999 47.6Z" fill="#11355F"/>
<path d="M30.8001 8.4001C30.8001 6.8537 29.5465 5.6001 28.0001 5.6001C26.4537 5.6001 25.2001 6.8537 25.2001 8.4001V11.2001C25.2001 12.7465 26.4537 14.0001 28.0001 14.0001C29.5465 14.0001 30.8001 12.7465 30.8001 11.2001V8.4001Z" fill="#11355F"/>
<path d="M43.8392 16.1206C44.9326 15.0271 44.9326 13.2542 43.8392 12.1608C42.7457 11.0673 40.9728 11.0673 39.8794 12.1608L37.8995 14.1407C36.806 15.2341 36.806 17.007 37.8995 18.1005C38.9929 19.1939 40.7658 19.1939 41.8593 18.1005L43.8392 16.1206Z" fill="#11355F"/>
<path d="M50.4001 28.0001C50.4001 29.5465 49.1465 30.8001 47.6001 30.8001H44.8001C43.2537 30.8001 42.0001 29.5465 42.0001 28.0001C42.0001 26.4537 43.2537 25.2001 44.8001 25.2001H47.6001C49.1465 25.2001 50.4001 26.4537 50.4001 28.0001Z" fill="#11355F"/>
<path d="M14.1406 18.1005C15.2341 19.194 17.007 19.194 18.1004 18.1005C19.1939 17.007 19.1939 15.2342 18.1004 14.1407L16.1205 12.1608C15.0271 11.0673 13.2542 11.0673 12.1607 12.1608C11.0673 13.2543 11.0673 15.0271 12.1607 16.1206L14.1406 18.1005Z" fill="#11355F"/>
<path d="M14.0001 28.0001C14.0001 29.5465 12.7465 30.8001 11.2001 30.8001H8.4001C6.8537 30.8001 5.6001 29.5465 5.6001 28.0001C5.6001 26.4537 6.8537 25.2001 8.4001 25.2001H11.2001C12.7465 25.2001 14.0001 26.4537 14.0001 28.0001Z" fill="#11355F"/>
</svg>
